<svg xmlns="http://www.w3.org/2000/svg" xmlns:xlink="http://www.w3.org/1999/xlink" width="2000" zoomAndPan="magnify" viewBox="0 0 1500 1499.999933" height="2000" preserveAspectRatio="xMidYMid meet" version="1.0"><defs><g/><clipPath id="8dd744c357"><rect x="0" width="1273" y="0" height="1335"/></clipPath></defs><g transform="matrix(1, 0, 0, 1, 136, 82)"><g clip-path="url(#8dd744c357)"><g fill="#f9a8c9" fill-opacity="1"><g transform="translate(0.135627, 1083.410775)"><g><path d="M 569.34375 -708.421875 C 566.664062 -679.066406 564.828125 -650.710938 563.828125 -623.359375 C 562.828125 -596.015625 562.328125 -575.003906 562.328125 -560.328125 C 562.328125 -546.992188 562.660156 -534.320312 563.328125 -522.3125 C 563.992188 -510.300781 564.660156 -500.296875 565.328125 -492.296875 L 542.328125 -492.296875 C 535.648438 -540.984375 525.304688 -579.503906 511.296875 -607.859375 C 497.296875 -636.210938 479.117188 -656.222656 456.765625 -667.890625 C 434.421875 -679.566406 408.238281 -685.40625 378.21875 -685.40625 L 337.203125 -685.40625 C 317.859375 -685.40625 303.179688 -683.738281 293.171875 -680.40625 C 283.171875 -677.070312 276.5 -670.398438 273.15625 -660.390625 C 269.820312 -650.390625 268.15625 -635.046875 268.15625 -614.359375 L 268.15625 -94.0625 C 268.15625 -73.375 269.820312 -58.023438 273.15625 -48.015625 C 276.5 -38.015625 283.171875 -31.347656 293.171875 -28.015625 C 303.179688 -24.679688 317.859375 -23.015625 337.203125 -23.015625 L 386.234375 -23.015625 C 416.242188 -23.015625 442.753906 -29.515625 465.765625 -42.515625 C 488.785156 -55.523438 508.46875 -77.707031 524.8125 -109.0625 C 541.15625 -140.414062 553.660156 -182.773438 562.328125 -236.140625 L 585.34375 -236.140625 C 583.34375 -214.796875 582.34375 -186.78125 582.34375 -152.09375 C 582.34375 -136.75 582.675781 -115.066406 583.34375 -87.046875 C 584.007812 -59.035156 586.007812 -30.019531 589.34375 0 C 555.320312 -1.332031 516.96875 -2.164062 474.28125 -2.5 C 431.59375 -2.832031 393.570312 -3 360.21875 -3 C 343.539062 -3 322.191406 -3 296.171875 -3 C 270.160156 -3 242.144531 -2.832031 212.125 -2.5 C 182.101562 -2.164062 151.75 -1.832031 121.0625 -1.5 C 90.382812 -1.164062 61.367188 -0.664062 34.015625 0 L 34.015625 -20.015625 C 55.367188 -21.347656 71.378906 -24.015625 82.046875 -28.015625 C 92.722656 -32.015625 99.894531 -40.019531 103.5625 -52.03125 C 107.226562 -64.039062 109.0625 -82.050781 109.0625 -106.0625 L 109.0625 -602.359375 C 109.0625 -627.035156 107.226562 -645.210938 103.5625 -656.890625 C 99.894531 -668.566406 92.554688 -676.570312 81.546875 -680.90625 C 70.535156 -685.238281 54.691406 -687.738281 34.015625 -688.40625 L 34.015625 -708.421875 C 61.367188 -707.753906 90.382812 -707.253906 121.0625 -706.921875 C 151.75 -706.585938 182.101562 -706.253906 212.125 -705.921875 C 242.144531 -705.585938 270.160156 -705.421875 296.171875 -705.421875 C 322.191406 -705.421875 343.539062 -705.421875 360.21875 -705.421875 C 390.894531 -705.421875 425.742188 -705.585938 464.765625 -705.921875 C 503.796875 -706.253906 538.65625 -707.085938 569.34375 -708.421875 Z M 413.25 -366.21875 C 413.25 -366.21875 413.25 -362.878906 413.25 -356.203125 C 413.25 -349.535156 413.25 -346.203125 413.25 -346.203125 L 238.140625 -346.203125 C 238.140625 -346.203125 238.140625 -349.535156 238.140625 -356.203125 C 238.140625 -362.878906 238.140625 -366.21875 238.140625 -366.21875 Z M 442.265625 -498.296875 C 439.597656 -460.273438 438.429688 -431.253906 438.765625 -411.234375 C 439.097656 -391.222656 439.265625 -372.882812 439.265625 -356.21875 C 439.265625 -339.539062 439.597656 -321.191406 440.265625 -301.171875 C 440.929688 -281.160156 442.597656 -252.144531 445.265625 -214.125 L 422.25 -214.125 C 418.914062 -237.46875 412.742188 -259.144531 403.734375 -279.15625 C 394.734375 -299.175781 381.894531 -315.351562 365.21875 -327.6875 C 348.539062 -340.03125 326.859375 -346.203125 300.171875 -346.203125 L 300.171875 -366.21875 C 320.191406 -366.21875 337.203125 -370.382812 351.203125 -378.71875 C 365.210938 -387.0625 376.71875 -398.066406 385.71875 -411.734375 C 394.726562 -425.410156 401.898438 -439.921875 407.234375 -455.265625 C 412.578125 -470.609375 416.582031 -484.953125 419.25 -498.296875 Z M 442.265625 -498.296875 "/></g></g></g><g fill="#e879a0" fill-opacity="1"><g transform="translate(584.481539, 1083.410775)"><g><path d="M 230.140625 -284.171875 L 235.140625 -304.1875 L 280.171875 -304.1875 C 324.191406 -304.1875 361.378906 -312.351562 391.734375 -328.6875 C 422.085938 -345.03125 446.4375 -366.539062 464.78125 -393.21875 C 483.125 -419.90625 496.296875 -449.425781 504.296875 -481.78125 C 512.304688 -514.132812 516.3125 -546.65625 516.3125 -579.34375 C 516.3125 -614.695312 508.804688 -641.710938 493.796875 -660.390625 C 478.785156 -679.066406 453.9375 -688.40625 419.25 -688.40625 C 405.90625 -688.40625 395.5625 -686.070312 388.21875 -681.40625 C 380.882812 -676.738281 375.050781 -668.234375 370.71875 -655.890625 C 366.382812 -643.546875 361.210938 -625.703125 355.203125 -602.359375 L 223.125 -106.0625 C 218.457031 -86.71875 216.125 -70.875 216.125 -58.53125 C 216.125 -46.195312 221.125 -37.023438 231.125 -31.015625 C 241.132812 -25.015625 258.148438 -21.347656 282.171875 -20.015625 L 278.171875 0 C 258.148438 -1.332031 234.796875 -2.164062 208.109375 -2.5 C 181.429688 -2.832031 153.421875 -3 124.078125 -3 C 90.722656 -3 59.035156 -2.832031 29.015625 -2.5 C -1.003906 -2.164062 -24.6875 -1.332031 -42.03125 0 L -38.015625 -20.015625 C -15.335938 -21.347656 2.332031 -24.015625 15 -28.015625 C 27.675781 -32.015625 37.679688 -40.019531 45.015625 -52.03125 C 52.359375 -64.039062 59.03125 -82.050781 65.03125 -106.0625 L 197.109375 -602.359375 C 201.785156 -623.035156 204.125 -639.375 204.125 -651.375 C 204.125 -663.382812 199.453125 -672.390625 190.109375 -678.390625 C 180.773438 -684.398438 163.429688 -687.738281 138.078125 -688.40625 L 143.078125 -708.421875 C 159.753906 -707.753906 183.101562 -707.085938 213.125 -706.421875 C 243.144531 -705.753906 272.828125 -705.421875 302.171875 -705.421875 C 326.191406 -705.421875 350.375 -705.753906 374.71875 -706.421875 C 399.070312 -707.085938 423.585938 -707.421875 448.265625 -707.421875 C 528.316406 -707.421875 587.519531 -694.410156 625.875 -668.390625 C 664.226562 -642.378906 683.40625 -605.023438 683.40625 -556.328125 C 683.40625 -504.296875 666.0625 -457.765625 631.375 -416.734375 C 596.6875 -375.710938 548.320312 -343.363281 486.28125 -319.6875 C 424.25 -296.007812 352.207031 -284.171875 270.15625 -284.171875 Z M 230.140625 -284.171875 "/></g></g></g></g></g></svg>